<svg xmlns="http://www.w3.org/2000/svg" width="21" height="24" fill="none" viewBox="0 0 21 24">
    <path fill="#BABABA" d="M18.75 3H16.5V.562c0-.309-.253-.562-.563-.562h-.374c-.31 0-.563.253-.563.563V3H6V.562C6 .254 5.747 0 5.437 0h-.375C4.753 0 4.5.253 4.5.563V3H2.25C1.008 3 0 4.008 0 5.25v16.5C0 22.992 1.008 24 2.25 24h16.5c1.242 0 2.25-1.008 2.25-2.25V5.25C21 4.008 19.992 3 18.75 3zM2.25 4.5h16.5c.413 0 .75.338.75.75V7.5h-18V5.25c0-.412.337-.75.75-.75zm16.5 18H2.25c-.413 0-.75-.337-.75-.75V9h18v12.75c0 .413-.337.75-.75.75zM6.937 15H5.063c-.309 0-.562-.253-.562-.563v-1.874c0-.31.253-.563.563-.563h1.875c.309 0 .562.253.562.563v1.874c0 .31-.253.563-.563.563zm4.5 0H9.563c-.31 0-.563-.253-.563-.563v-1.874c0-.31.253-.563.563-.563h1.874c.31 0 .563.253.563.563v1.874c0 .31-.253.563-.563.563zm4.5 0h-1.874c-.31 0-.563-.253-.563-.563v-1.874c0-.31.253-.563.563-.563h1.874c.31 0 .563.253.563.563v1.874c0 .31-.253.563-.563.563zm-4.5 4.5H9.563c-.31 0-.563-.253-.563-.563v-1.875c0-.309.253-.562.563-.562h1.874c.31 0 .563.253.563.563v1.875c0 .309-.253.562-.563.562zm-4.5 0H5.063c-.309 0-.562-.253-.562-.563v-1.875c0-.309.253-.562.563-.562h1.875c.309 0 .562.253.562.563v1.875c0 .309-.253.562-.563.562zm9 0h-1.874c-.31 0-.563-.253-.563-.563v-1.875c0-.309.253-.562.563-.562h1.874c.31 0 .563.253.563.563v1.875c0 .309-.253.562-.563.562z"/>
</svg>
